# xmcd
#
# Track frame offsets: 
#        150
#        12232
#        22625
#        37793
#        54901
#        69143
#        84468
#        99658
#        118058
#        134665
#        153085
#        167661
#
# Disc length: 2435 seconds
#
# Revision: 0
# Processed by: cddbd v1.5.2PL0 Copyright (c) Steve Scherf et al.
# Submitted via: ExactAudioCopy v0.99pb5
#
DISCID=8209810c
DTITLE=Earl Brewer - Standing Up For Country
DYEAR=2008
DGENRE=Country
TTITLE0=George Won't Have To Wonder Anymore
TTITLE1=Standing Up For Country
TTITLE2=As The Jukebox Plays
TTITLE3=Bottom Of The Bottle
TTITLE4=Down By The Ferns
TTITLE5=Down To The River
TTITLE6=Everything That's Beautiful
TTITLE7=I Write Songs
TTITLE8=My Boots Are Country Deep
TTITLE9=One Night Of Drinking
TTITLE10=Somebody Prayed For Me
TTITLE11=Weeping Willow Tree
EXTD=
EXTT0=
EXTT1=
EXTT2=
EXTT3=
EXTT4=
EXTT5=
EXTT6=
EXTT7=
EXTT8=
EXTT9=
EXTT10=
EXTT11=
PLAYORDER=
